<svg width="731" height="440" viewBox="0 0 731 440" fill="none" xmlns="http://www.w3.org/2000/svg">
<g id="background">
<path id="Vector 1" d="M4.97253 169.78C-20.8472 100.141 60.1517 69.577 103.879 63C117.066 68.8032 145.315 81.1061 152.811 83.8917C162.181 87.3736 183.003 124.514 181.962 187.189C181.129 237.33 129.559 248.317 103.879 247.543C81.6681 250.638 30.7922 239.419 4.97253 169.78Z" fill="#7B7B7B"/>
<path id="Vector 2" d="M110.416 161.317C24.9004 194.908 26.9862 155.525 3 50.1167L110.416 20C132.665 30.0389 178.621 51.5067 184.461 57.0667C191.761 64.0167 195.932 127.725 110.416 161.317Z" fill="#7B7B7B"/>
<path id="Vector 3" d="M18.0918 247.333C15.5819 190.756 65.1535 187.432 90.253 192.843C113.261 195.548 165.343 214.407 189.605 268.202C219.934 335.446 181.239 370.227 108.032 365.589C34.8249 360.952 21.2293 318.055 18.0918 247.333Z" fill="#7B7B7B"/>
<path id="Vector 4" d="M87.0147 230.733C61.1596 177.628 124.894 169.01 159.993 171.339C225.674 182.985 281.971 257.518 243.397 302.937C212.537 339.273 174.936 318.077 159.993 302.937C146.44 300.996 112.87 283.838 87.0147 230.733Z" fill="#7B7B7B"/>
<path id="Vector 5" d="M198.951 22.1891C144.746 -19.5734 153.78 65.1117 151 106.874C174.281 121.568 229.598 145.157 264.623 121.955C308.405 92.9534 310.49 138.196 366.78 150.957C423.071 163.718 432.452 55.8311 392.841 22.1891C353.229 -11.4529 279.217 0.147806 271.92 11.7485C264.623 23.3492 266.708 74.3922 198.951 22.1891Z" fill="#7B7B7B"/>
<path id="Vector 6" d="M281.257 92.1444C332.248 81.0969 324.794 152.752 314.694 189.961L261.404 196.866C230.057 198.017 160.467 192.263 132.882 160.041C105.297 127.819 128.354 105.187 143.331 97.8984C168.06 100.584 230.266 103.192 281.257 92.1444Z" fill="#7B7B7B"/>
<path id="Vector 7" d="M238.551 282.916C279.322 326.599 326.264 280.98 344.639 252.71H354C353.653 225.214 341.935 166.505 297.835 151.634C242.711 133.045 223.989 122.589 191.747 170.223C159.504 217.856 187.586 228.312 238.551 282.916Z" fill="#7B7B7B"/>
<path id="Vector 8" d="M274.907 414.164C223.95 440.122 176.403 373.219 159 336.523C181.973 319.527 240.866 280.205 292.659 258.883C357.399 232.23 317.719 287.853 359.488 342.318C401.256 396.782 338.604 381.717 274.907 414.164Z" fill="#7B7B7B"/>
<path id="Vector 9" d="M278.833 176.806C246.394 135.982 311.064 110.313 347.454 102.581C376.913 90.983 443.315 68.2514 473.259 70.107C510.688 72.4266 487.815 186.085 462.862 151.291C437.909 116.498 408.797 203.481 394.241 239.434C379.685 275.387 319.382 227.837 278.833 176.806Z" fill="#7B7B7B"/>
<path id="Vector 10" d="M326.027 351.821C260.429 337.895 284.163 292.633 304.23 271.743L387.267 223C400.414 234.606 439.372 266.405 490.025 300.757C553.34 343.697 501.442 371.551 470.304 385.477C439.165 399.404 440.203 351.821 426.709 336.734C413.216 321.647 408.026 369.229 326.027 351.821Z" fill="#7B7B7B"/>
<path id="Vector 11" d="M391.701 270.332C340.966 239.777 374.027 192.016 396.899 171.955C402.79 163.854 422.059 140.244 452.001 110.615C489.428 73.5792 484.23 134.92 534.133 158.067C584.036 181.214 529.975 215.935 520.618 263.387C511.261 310.84 455.12 308.525 391.701 270.332Z" fill="#7B7B7B"/>
<path id="Vector 12" d="M343.5 426.577C271.207 433.032 305.068 363.951 331.035 328.603C343.153 321.687 375.076 306.473 405.821 300.94C444.252 294.024 478.529 304.398 488.916 351.656C499.303 398.914 433.865 418.509 343.5 426.577Z" fill="#7B7B7B"/>
<path id="Vector 13" d="M378.471 75.7471C353.486 114.524 420.114 105.927 456.552 96.7816C461.757 110.805 479.455 140.863 508.606 148.911C545.043 158.971 571.07 96.7816 587.727 68.4308C604.384 40.0799 582.522 56.5996 508.606 17.2742C434.689 -22.0511 409.704 27.2763 378.471 75.7471Z" fill="#7B7B7B"/>
<path id="Vector 14" d="M586.325 294.318C658.814 323.909 663.049 248.081 656.106 206.468C667.215 187.974 676.103 138.732 656.106 89.7216C631.11 28.4584 576.951 92.0334 557.162 89.7216C537.374 87.4097 520.709 117.463 481.132 192.597C441.554 267.732 495.713 257.328 586.325 294.318Z" fill="#7B7B7B"/>
<path id="Vector 15" d="M495.799 438.526C431.825 450.601 444.218 385.506 458.412 351.45L518.648 204C519.686 243.475 537.757 312.207 601.732 271.339C681.7 220.254 643.274 298.043 710.779 336.356C778.285 374.67 657.813 445.493 625.618 400.213C593.423 354.933 575.768 423.433 495.799 438.526Z" fill="#7B7B7B"/>
</g>
</svg>
